<svg xmlns="http://www.w3.org/2000/svg" xmlns:xlink="http://www.w3.org/1999/xlink" xml:space="preserve" width="8741" height="8773" version="1.1" style="shape-rendering:geometricPrecision; text-rendering:geometricPrecision; image-rendering:optimizeQuality; fill-rule:evenodd; clip-rule:evenodd"><rect id="backgroundrect" width="100%" height="100%" x="0" y="0" fill="none" stroke="none"/>
 <defs>
  <style type="text/css">
   <![CDATA[
    .fil0 {fill:#a358e8}
   ]]>
  </style>
 </defs>
 
<g class="currentLayer" style=""><title>Layer 1</title><g id="Layer_x0020_1" class="">
  <metadata id="CorelCorpID_0Corel-Layer" transform="translate(-13016.759765625,-5165.39990234375) "/>
  <path class="fil0" d="M3370.9202343750003,4989.460097656251 l-33.06,0 l0,16.51 l-16.51,0 l0,16.52 l-33.05,0 l0,16.52 l-16.52,0 l0,16.53 l-33.05,0 l0,16.52 l-16.54,0 l0,16.52 l-33.03,0 l0,16.51 l-16.54,0 l0,16.54 l-33.05,0 l0,16.51 l-16.51,0 l0,16.52 l-16.54,0 l0,16.52 l-33.03,0 l0,16.53 l-33.05,0 l0,16.52 l-16.54,0 l0,16.52 l-33.03,0 l0,16.51 l-16.54,0 l0,16.54 l-33.05,0 l0,16.52 l-16.52,0 l0,16.51 l-33.05,0 l0,16.52 l-16.51,0 l0,16.53 l-33.06,0 l0,16.52 l-16.51,0 l0,16.52 l-33.05,0 l0,16.51 l-16.54,0 l0,16.54 l-33.03,0 l0,16.52 l-16.54,0 l0,16.51 l-33.05,0 l0,16.52 l-16.51,0 l0,16.53 l-16.52,0 l0,16.52 l-33.05,0 l0,16.52 l-16.54,0 l0,16.52 l-33.05,0 l0,16.53 l-33.03,0 l0,16.52 l-16.54,0 l0,16.51 l-16.51,0 l0,16.52 l-33.06,0 l0,16.54 l-16.51,0 l0,16.51 l-33.05,0 l0,16.52 l-16.54,0 l0,16.52 l-33.03,0 l0,16.53 l-16.54,0 l0,16.52 l-33.05,0 l0,16.51 l-33.03,0 l0,16.52 l-16.54,0 l0,16.54 l-16.51,0 l0,16.51 l-33.06,0 l0,16.52 l-16.51,0 l0,16.52 l-33.05,0 l0,16.53 l-16.54,0 l0,16.52 l-33.03,0 l0,16.52 l-16.54,0 l0,16.51 l-33.05,0 l0,16.54 l-16.52,0 l0,16.51 l-33.05,0 l0,16.52 l-16.51,0 l0,16.52 l-33.06,0 l0,16.53 l-16.53,0 l0,16.52 l-33.03,0 l0,16.52 l-16.54,0 l0,16.51 l-33.05,0 l0,16.54 l-16.52,0 l0,16.51 l-33.05,0 l0,16.52 l-16.52,0 l0,16.52 l-33.05,0 l0,16.53 l-16.51,0 l0,16.52 l-16.54,0 l0,16.52 l-33.05,0 l0,16.51 l-33.03,0 l0,16.54 l-16.54,0 l0,16.52 l-33.05,0 l0,16.51 l-16.52,0 l0,16.52 l-33.05,0 l0,16.53 l-16.52,0 l0,-2445.16 l16.52,0 l0,16.52 l33.05,0 l0,16.52 l16.52,0 l0,16.51 l33.05,0 l0,16.54 l16.54,0 l0,16.52 l33.03,0 l0,16.51 l33.05,0 l0,16.52 l16.54,0 l0,16.53 l16.51,0 l0,16.52 l33.05,0 l0,16.52 l16.52,0 l0,16.52 l33.05,0 l0,16.53 l16.52,0 l0,16.52 l33.05,0 l0,16.51 l16.54,0 l0,16.52 l33.03,0 l0,16.54 l16.53,0 l0,16.51 l33.06,0 l0,16.52 l16.51,0 l0,16.52 l33.05,0 l0,16.53 l16.52,0 l0,16.52 l33.05,0 l0,16.51 l16.54,0 l0,16.52 l33.03,0 l0,16.54 l16.54,0 l0,16.51 l33.05,0 l0,16.52 l16.51,0 l0,16.52 l33.06,0 l0,16.53 l16.51,0 l0,16.52 l16.54,0 l0,16.52 l33.03,0 l0,16.51 l33.05,0 l0,16.54 l16.54,0 l0,16.51 l33.03,0 l0,16.52 l16.54,0 l0,16.52 l33.05,0 l0,16.53 l16.51,0 l0,16.52 l33.06,0 l0,16.52 l16.51,0 l0,16.51 l16.54,0 l0,16.54 l33.03,0 l0,16.52 l33.05,0 l0,16.51 l16.54,0 l0,16.52 l33.05,0 l0,16.53 l16.52,0 l0,16.52 l16.51,0 l0,16.52 l33.05,0 l0,16.51 l16.54,0 l0,16.54 l33.03,0 l0,16.52 l16.54,0 l0,16.51 l33.05,0 l0,16.52 l33.03,0 l0,16.53 l16.54,0 l0,16.52 l16.51,0 l0,16.52 l33.05,0 l0,16.52 l16.52,0 l0,16.53 l33.05,0 l0,16.52 l16.54,0 l0,16.51 l33.03,0 l0,16.52 l16.54,0 l0,16.54 l33.05,0 l0,16.51 l33.03,0 l0,16.52 l16.54,0 l0,16.52 l16.51,0 l0,16.53 l33.05,0 l0,16.52 l16.54,0 l0,16.51 l33.03,0 l0,16.52 l16.54,0 l0,16.54 l33.05,0 l0,16.51 l16.52,0 l0,16.52 l33.05,0 l0,16.52 l16.51,0 l0,16.53 l33.06,0 l0,16.52 l16.51,0 l0,33.03 l-16.51,0 l0,16.54 zm-1933.33,3783.38 l33.05,0 l0,-16.51 l33.05,0 l0,-16.54 l33.05,0 l0,-16.52 l16.52,0 l0,-16.51 l33.05,0 l0,-16.52 l16.52,0 l0,-16.53 l33.05,0 l0,-16.52 l33.05,0 l0,-16.52 l16.54,0 l0,-16.52 l33.03,0 l0,-16.53 l16.53,0 l0,-16.52 l33.06,0 l0,-16.51 l33.03,0 l0,-16.52 l16.53,0 l0,-16.54 l33.06,0 l0,-16.51 l33.03,0 l0,-16.52 l16.53,0 l0,-16.52 l33.06,0 l0,-16.53 l16.51,0 l0,-16.52 l33.05,0 l0,-16.51 l16.52,0 l0,-16.52 l33.05,0 l0,-16.54 l33.05,0 l0,-16.51 l16.52,0 l0,-16.52 l33.05,0 l0,-16.52 l33.05,0 l0,-16.53 l16.52,0 l0,-16.52 l33.05,0 l0,-16.52 l16.54,0 l0,-16.51 l33.03,0 l0,-16.54 l16.54,0 l0,-16.51 l33.05,0 l0,-16.52 l33.03,0 l0,-16.52 l16.54,0 l0,-16.53 l33.05,0 l0,-16.52 l33.03,0 l0,-16.52 l16.54,0 l0,-16.51 l33.05,0 l0,-16.54 l16.51,0 l0,-16.51 l33.06,0 l0,-16.52 l16.51,0 l0,-16.52 l33.05,0 l0,-16.53 l33.06,0 l0,-16.52 l16.51,0 l0,-16.52 l33.05,0 l0,-16.51 l33.06,0 l0,-16.54 l16.51,0 l0,-16.52 l33.05,0 l0,-16.51 l16.54,0 l0,-16.52 l33.03,0 l0,-16.53 l33.05,0 l0,-16.52 l16.54,0 l0,-16.52 l33.03,0 l0,-16.52 l16.54,0 l0,-16.53 l33.05,0 l0,-16.52 l33.03,0 l0,-16.51 l16.54,0 l0,-16.52 l33.05,0 l0,-16.53 l16.51,0 l0,-16.52 l33.06,0 l0,-16.52 l33.05,0 l0,-16.52 l16.51,0 l0,-16.53 l33.06,0 l0,-16.52 l33.05,0 l0,-16.51 l16.51,0 l0,-16.52 l33.06,0 l0,-16.54 l16.51,0 l0,-16.51 l33.05,0 l0,-16.52 l16.54,0 l0,-16.52 l33.03,0 l0,-16.53 l33.05,0 l0,-16.52 l16.54,0 l0,-16.52 l33.03,0 l0,-16.51 l16.54,0 l0,-16.54 l33.05,0 l0,-16.51 l33.03,0 l0,-16.52 l16.54,0 l0,-16.52 l33.05,0 l0,-16.53 l33.03,0 l0,-16.52 l16.54,0 l0,-16.52 l33.05,0 l0,-16.51 l16.52,0 l0,-16.54 l33.05,0 l0,-16.51 l16.51,0 l0,-16.52 l33.06,0 l0,-16.52 l33.05,0 l0,-16.53 l16.51,0 l0,-16.52 l33.06,0 l0,-16.52 l33.05,0 l0,-16.51 l16.51,0 l0,-16.54 l33.06,0 l0,-16.52 l16.53,0 l0,-16.51 l33.03,0 l0,-16.52 l33.06,0 l0,-16.53 l16.53,0 l0,-16.52 l33.03,0 l0,-16.52 l33.06,0 l0,-16.51 l16.53,0 l0,-16.54 l33.03,0 l0,-16.52 l16.54,0 l0,-16.51 l33.05,0 l0,-16.52 l16.52,0 l0,-16.53 l33.05,0 l0,-16.52 l33.05,0 l0,-16.52 l16.52,0 l0,-16.52 l33.05,0 l0,-16.53 l33.05,0 l0,-16.52 l16.52,0 l0,-16.51 l33.05,0 l0,-16.52 l16.52,0 l0,-16.54 l33.05,0 l0,-16.51 l16.53,0 l0,-16.52 l33.04,0 l0,-16.52 l33.05,0 l0,-16.53 l16.53,0 l0,-16.52 l33.03,0 l0,-16.51 l33.06,0 l0,-16.52 l16.53,0 l0,-16.54 l33.03,0 l0,-16.51 l16.54,0 l0,-16.52 l33.05,0 l0,-16.52 l33.03,0 l0,-16.53 l16.54,0 l0,-16.52 l33.05,0 l0,-16.52 l16.52,0 l0,-16.51 l33.05,0 l0,-16.54 l33.05,0 l0,-16.51 l16.52,0 l0,-16.52 l33.05,0 l0,-16.52 l16.52,0 l0,-16.53 l33.05,0 l0,-16.52 l33.05,0 l0,-16.52 l16.52,0 l0,-16.51 l33.05,0 l0,-16.54 l16.53,0 l0,-16.51 l33.04,0 l0,-16.52 l33.05,0 l0,-16.52 l16.53,0 l0,-16.53 l33.04,0 l0,-16.52 l16.53,0 l0,-16.52 l33.05,0 l0,-16.51 l33.04,0 l0,-16.54 l16.53,0 l0,-16.52 l33.05,0 l0,-16.51 l16.52,0 l0,-16.52 l33.05,0 l0,-16.53 l33.05,0 l0,-16.52 l16.52,0 l0,-16.52 l33.05,0 l0,-16.51 l33.05,0 l0,-16.54 l16.52,0 l0,-16.52 l33.05,0 l0,-16.51 l16.52,0 l0,-16.52 l33.05,0 l0,-16.53 l16.53,0 l0,-16.52 l33.04,0 l0,-16.52 l33.05,0 l0,-16.52 l16.53,0 l0,-16.53 l33.04,0 l0,-16.52 l33.05,0 l0,-16.51 l16.53,0 l0,-16.52 l33.04,0 l0,-16.54 l16.53,0 l0,-16.51 l33.05,0 l0,-16.52 l33.05,0 l0,-16.52 l16.52,0 l0,-16.53 l33.05,0 l0,-16.52 l16.52,0 l0,-16.52 l33.05,0 l0,-16.51 l33.05,0 l0,-16.54 l16.52,0 l0,-16.51 l33.05,0 l0,-16.52 l16.52,0 l0,-16.52 l33.05,0 l0,-16.53 l16.53,0 l0,-16.52 l33.04,0 l0,-16.52 l33.05,0 l0,-16.51 l33.05,0 l0,-16.54 l16.52,0 l0,-16.51 l33.05,0 l0,-16.52 l16.53,0 l0,-16.52 l33.04,0 l0,-16.53 l16.53,0 l0,-16.52 l33.05,0 l0,-16.52 l16.52,0 l0,-16.51 l33.05,0 l0,-16.54 l33.05,0 l0,-16.52 l33.06,0 l0,-16.51 l16.51,0 l0,-16.52 l33.05,0 l0,-16.53 l16.52,0 l0,-16.52 l33.05,0 l0,-16.52 l16.52,0 l0,-16.51 l33.05,0 l0,-16.54 l33.05,0 l0,-16.52 l16.52,0 l0,-16.51 l33.05,0 l0,-16.52 l33.05,0 l0,-16.53 l16.52,0 l0,-16.52 l33.05,0 l0,-16.52 l16.54,0 l0,-16.52 l33.05,0 l0,-16.53 l16.51,0 l0,-16.52 l33.06,0 l0,-16.51 l33.05,0 l0,-16.52 l16.51,0 l0,-16.54 l33.06,0 l0,-16.51 l33.05,0 l0,-16.52 l16.51,0 l0,-16.52 l33.05,0 l0,-16.53 l16.52,0 l0,-16.52 l33.05,0 l0,-16.51 l33.05,0 l0,-16.52 l16.52,0 l0,-16.54 l33.05,0 l0,-16.51 l16.52,0 l0,-16.52 l33.05,0 l0,-16.52 l16.54,0 l0,-16.53 l33.03,0 l0,-16.52 l33.05,0 l0,-16.52 l16.54,0 l0,-16.51 l33.05,0 l0,-16.54 l33.03,0 l0,-16.51 l16.54,0 l0,-16.52 l33.05,0 l0,-16.52 l16.51,0 l0,-16.53 l33.06,0 l0,-16.52 l16.51,0 l0,-16.52 l33.05,0 l0,-16.51 l33.06,0 l0,-16.54 l33.05,0 l0,-16.51 l16.51,0 l0,-16.52 l16.52,0 l0,-33.05 l-49.57,0 l0,16.53 l-33.05,0 l0,16.52 l-33.03,0 l0,16.52 l-16.54,0 l0,16.51 l-33.05,0 l0,16.54 l-16.52,0 l0,16.51 l-33.05,0 l0,16.52 l-16.51,0 l0,16.52 l-33.06,0 l0,16.53 l-33.05,0 l0,16.52 l-16.51,0 l0,16.52 l-33.06,0 l0,16.51 l-33.05,0 l0,16.54 l-16.51,0 l0,16.51 l-33.06,0 l0,16.52 l-16.53,0 l0,16.52 l-33.03,0 l0,16.53 l-33.06,0 l0,16.52 l-16.53,0 l0,16.52 l-33.03,0 l0,16.51 l-33.06,0 l0,16.54 l-16.53,0 l0,16.52 l-33.03,0 l0,16.51 l-16.54,0 l0,16.52 l-33.05,0 l0,16.53 l-16.52,0 l0,16.52 l-33.05,0 l0,16.52 l-33.05,0 l0,16.51 l-16.52,0 l0,16.54 l-33.05,0 l0,16.52 l-33.05,0 l0,16.51 l-16.52,0 l0,16.52 l-33.05,0 l0,16.53 l-16.51,0 l0,16.52 l-33.06,0 l0,16.52 l-16.53,0 l0,16.52 l-33.03,0 l0,16.53 l-33.06,0 l0,16.52 l-16.53,0 l0,16.51 l-33.03,0 l0,16.52 l-33.06,0 l0,16.54 l-16.53,0 l0,16.51 l-33.03,0 l0,16.52 l-16.54,0 l0,16.52 l-33.05,0 l0,16.53 l-33.03,0 l0,16.52 l-16.54,0 l0,16.51 l-33.05,0 l0,16.52 l-16.52,0 l0,16.54 l-33.05,0 l0,16.51 l-16.52,0 l0,16.52 l-33.05,0 l0,16.52 l-33.05,0 l0,16.53 l-16.52,0 l0,16.52 l-33.05,0 l0,16.52 l-33.05,0 l0,16.51 l-16.52,0 l0,16.54 l-33.05,0 l0,16.51 l-16.53,0 l0,16.52 l-33.04,0 l0,16.52 l-16.53,0 l0,16.53 l-33.05,0 l0,16.52 l-33.04,0 l0,16.52 l-16.53,0 l0,16.51 l-33.05,0 l0,16.54 l-33.04,0 l0,16.51 l-16.53,0 l0,16.52 l-33.05,0 l0,16.52 l-16.52,0 l0,16.53 l-33.05,0 l0,16.52 l-33.05,0 l0,16.52 l-16.52,0 l0,16.51 l-33.05,0 l0,16.54 l-33.05,0 l0,16.52 l-16.52,0 l0,16.51 l-33.05,0 l0,16.52 l-16.52,0 l0,16.53 l-33.05,0 l0,16.52 l-16.53,0 l0,16.52 l-33.04,0 l0,16.52 l-33.05,0 l0,16.53 l-16.53,0 l0,16.52 l-33.04,0 l0,16.51 l-33.05,0 l0,16.52 l-16.53,0 l0,16.54 l-33.04,0 l0,16.51 l-16.53,0 l0,16.52 l-33.05,0 l0,16.52 l-16.52,0 l0,16.53 l-33.05,0 l0,16.52 l-33.05,0 l0,16.51 l-16.52,0 l0,16.52 l-33.05,0 l0,16.54 l-33.05,0 l0,16.51 l-16.52,0 l0,16.52 l-33.05,0 l0,16.52 l-16.52,0 l0,16.53 l-33.05,0 l0,16.52 l-33.05,0 l0,16.52 l-16.52,0 l0,16.51 l-33.05,0 l0,16.54 l-33.05,0 l0,16.51 l-16.52,0 l0,16.52 l-33.05,0 l0,16.52 l-16.53,0 l0,16.53 l-33.04,0 l0,16.52 l-16.53,0 l0,16.52 l-33.05,0 l0,16.51 l-33.06,0 l0,16.54 l-16.51,0 l0,16.51 l-33.05,0 l0,16.52 l-33.06,0 l0,16.52 l-16.51,0 l0,16.53 l-16.52,0 l0,16.52 l-33.05,0 l0,16.52 l-33.05,0 l0,16.51 l-33.05,0 l0,16.54 l-16.52,0 l0,16.52 l-33.05,0 l0,16.51 l-16.52,0 l0,16.52 l-33.05,0 l0,16.53 l-16.53,0 l0,16.52 l-33.04,0 l0,16.52 l-33.05,0 l0,16.51 l-16.53,0 l0,16.54 l-33.04,0 l0,16.52 l-33.05,0 l0,16.51 l-16.53,0 l0,16.52 l-33.06,0 l0,16.53 l-16.51,0 l0,16.52 l-33.05,0 l0,16.52 l-16.52,0 l0,16.52 l-33.05,0 l0,16.53 l-33.05,0 l0,16.52 l-16.52,0 l0,16.51 l-33.05,0 l0,16.52 l-33.05,0 l0,16.54 l-16.52,0 l0,16.51 l-33.05,0 l0,16.52 l-16.52,0 l0,16.52 l-33.05,0 l0,16.53 l-16.54,0 l0,16.52 l-33.03,0 l0,16.51 l-33.05,0 l0,16.52 l-33.05,0 l0,16.54 l-16.52,0 l0,16.51 l-33.05,0 l0,16.52 l-16.54,0 l0,16.52 l-33.05,0 l0,16.53 l-16.51,0 l0,16.52 l-33.06,0 l0,16.52 l-33.05,0 l0,16.51 l-16.51,0 l0,16.54 l-33.06,0 l0,16.51 l-33.05,0 l0,16.52 l-16.51,0 l0,16.52 l-33.06,0 l0,16.53 l-16.51,0 l0,16.52 l-33.05,0 l0,16.52 l-16.52,0 l0,16.51 l-33.05,0 l0,16.54 l-33.05,0 l0,16.51 l-16.52,0 l0,16.52 l-33.05,0 l0,16.52 l-33.05,0 l0,16.53 l-16.52,0 l0,16.52 l-33.05,0 l0,16.52 l-16.54,0 l0,16.51 l-33.05,0 l0,16.54 l-16.52,0 l0,16.52 l-33.05,0 l0,16.51 l-33.05,0 l0,16.52 l-16.52,0 l0,16.53 l-33.05,0 l0,16.52 l-33.05,0 l0,16.52 l-16.52,0 l0,16.52 l-33.05,0 l0,16.53 l-16.51,0 l0,16.52 l-33.06,0 l0,16.51 l-33.05,0 l0,16.52 l-16.51,0 l0,16.53 l-33.06,0 l0,16.52 l-16.51,0 l0,16.52 l-33.05,0 l0,16.52 l-33.05,0 l0,16.53 l-16.52,0 l0,16.52 l-33.05,0 l0,16.51 l-16.54,0 l0,16.52 l-33.05,0 l0,16.54 l-33.03,0 l0,16.51 l-16.54,0 l0,16.52 l-33.05,0 l0,16.52 l-16.52,0 l0,16.53 l-33.05,0 l0,16.52 l-33.05,0 l0,16.52 l-16.52,0 l0,16.51 l-33.05,0 l0,16.54 l-16.51,0 l0,16.51 l-33.06,0 l0,16.52 l-33.05,0 l0,16.52 l-16.51,0 l0,16.53 l-33.06,0 l0,16.52 l-16.51,0 l0,16.52 l-33.05,0 l0,16.51 l-33.06,0 l0,16.54 l-16.51,0 l0,16.51 l-33.05,0 l0,16.52 l-33.06,0 l0,16.52 l-16.53,0 l0,16.53 l-33.03,0 l0,16.52 l-16.54,0 l0,16.52 l-33.05,0 l0,16.51 l-16.52,0 l0,16.54 l-33.05,0 l0,16.52 l-33.05,0 l0,16.51 l-16.52,0 l0,16.52 l-33.05,0 l0,16.53 l-33.05,0 l0,16.52 l-16.52,0 l0,16.52 l-33.05,0 l0,16.51 l-16.52,0 l0,16.54 l-33.05,0 l0,16.52 l-16.51,0 l0,16.51 l-33.06,0 l0,16.52 l-33.05,0 l0,16.53 l-16.53,0 l0,16.52 l-33.04,0 l0,-1800.82 l16.52,0 l0,-16.54 l16.52,0 l0,-16.51 l33.05,0 l0,-16.52 l16.53,0 l0,-16.52 l33.06,0 l0,-16.53 l16.51,0 l0,-16.52 l33.05,0 l0,-16.52 l16.52,0 l0,-16.51 l33.05,0 l0,-16.54 l16.52,0 l0,-16.51 l33.05,0 l0,-16.52 l16.54,0 l0,-16.52 l33.03,0 l0,-16.53 l16.53,0 l0,-16.52 l33.06,0 l0,-16.52 l16.51,0 l0,-16.51 l33.05,0 l0,-16.54 l16.52,0 l0,-16.51 l33.05,0 l0,-16.52 l16.52,0 l0,-16.52 l16.53,0 l0,-16.53 l33.06,0 l0,-16.52 l33.05,0 l0,-16.52 l16.51,0 l0,-16.51 l33.06,0 l0,-16.54 l16.51,0 l0,-16.52 l33.05,0 l0,-16.51 l16.52,0 l0,-16.52 l33.05,0 l0,-16.53 l16.54,0 l0,-16.52 l33.03,0 l0,-16.52 l16.54,0 l0,-16.51 l33.05,0 l0,-16.54 l16.51,0 l0,-16.52 l33.06,0 l0,-16.51 l16.51,0 l0,-16.52 l33.05,0 l0,-16.53 l16.52,0 l0,-16.52 l16.54,0 l0,-16.52 l33.05,0 l0,-16.52 l33.03,0 l0,-16.53 l16.54,0 l0,-16.52 l33.05,0 l0,-16.51 l16.51,0 l0,-16.52 l16.54,0 l0,-16.54 l33.03,0 l0,-16.51 l16.54,0 l0,-16.52 l33.05,0 l0,-16.52 l33.03,0 l0,-16.53 l16.54,0 l0,-16.52 l33.05,0 l0,-16.52 l16.51,0 l0,-16.51 l33.06,0 l0,-16.54 l16.51,0 l0,-16.51 l16.54,0 l0,-16.52 l33.03,0 l0,-16.52 l16.54,0 l0,-16.53 l33.05,0 l0,-16.52 l16.51,0 l0,-16.52 l33.06,0 l0,-16.51 l16.51,0 l0,-16.54 l33.05,0 l0,-16.51 l16.52,0 l0,-16.52 l33.05,0 l0,-16.52 l16.54,0 l0,-16.53 l33.05,0 l0,-16.52 l16.52,0 l0,-16.52 l33.05,0 l0,-16.51 l16.51,0 l0,-16.54 l33.06,0 l0,-16.52 l16.51,0 l0,-16.51 l33.05,0 l0,-16.52 l16.54,0 l0,-16.53 l33.03,0 l0,-16.52 l16.54,0 l0,-16.52 l33.05,0 l0,-16.51 l16.52,0 l0,-16.54 l33.05,0 l0,-16.52 l16.51,0 l0,-16.51 l33.06,0 l0,-16.52 l16.51,0 l0,-16.53 l33.05,0 l0,-16.52 l16.54,0 l0,-16.52 l33.03,0 l0,-16.52 l16.54,0 l0,-16.53 l33.05,0 l0,-16.52 l16.52,0 l0,-16.51 l33.05,0 l0,-16.52 l16.51,0 l0,-16.54 l33.06,0 l0,-16.51 l16.53,0 l0,-16.52 l16.52,0 l0,-16.52 l33.05,0 l0,-16.53 l16.52,0 l0,-16.52 l33.05,0 l0,-16.51 l33.05,0 l0,-16.52 l16.52,0 l0,-16.54 l33.05,0 l0,-16.51 l16.51,0 l0,-16.52 l16.54,0 l0,-16.52 l33.05,0 l0,-16.53 l33.03,0 l0,-16.52 l16.54,0 l0,-16.52 l33.05,0 l0,-16.51 l16.52,0 l0,-16.54 l33.05,0 l0,-16.51 l16.52,0 l0,-16.52 l16.53,0 l0,-16.52 l33.05,0 l0,-16.53 l16.52,0 l0,-16.52 l33.05,0 l0,-16.52 l16.52,0 l0,-16.51 l33.05,0 l0,-16.54 l16.52,0 l0,-33.03 l-16.52,0 l0,-16.52 l-33.05,0 l0,-16.53 l-16.52,0 l0,-16.52 l-33.05,0 l0,-16.52 l-16.52,0 l0,-16.51 l-33.05,0 l0,-16.54 l-16.53,0 l0,-16.52 l-16.52,0 l0,-16.51 l-33.05,0 l0,-16.52 l-16.52,0 l0,-16.53 l-33.05,0 l0,-16.52 l-16.54,0 l0,-16.52 l-33.03,0 l0,-16.51 l-33.05,0 l0,-16.54 l-16.54,0 l0,-16.52 l-16.51,0 l0,-16.51 l-33.05,0 l0,-16.52 l-16.52,0 l0,-16.53 l-33.05,0 l0,-16.52 l-16.52,0 l0,-16.52 l-33.05,0 l0,-16.52 l-33.05,0 l0,-16.53 l-16.52,0 l0,-16.52 l-16.53,0 l0,-16.51 l-33.06,0 l0,-16.52 l-16.51,0 l0,-16.54 l-33.05,0 l0,-16.51 l-16.52,0 l0,-16.52 l-33.05,0 l0,-16.52 l-16.54,0 l0,-16.53 l-33.03,0 l0,-16.52 l-16.54,0 l0,-16.51 l-33.05,0 l0,-16.52 l-16.51,0 l0,-16.54 l-33.06,0 l0,-16.51 l-16.51,0 l0,-16.52 l-33.05,0 l0,-16.52 l-16.52,0 l0,-16.53 l-33.05,0 l0,-16.52 l-16.54,0 l0,-16.52 l-33.03,0 l0,-16.51 l-16.54,0 l0,-16.54 l-33.05,0 l0,-16.51 l-16.51,0 l0,-16.52 l-33.06,0 l0,-16.52 l-16.51,0 l0,-16.53 l-33.05,0 l0,-16.52 l-16.52,0 l0,-16.52 l-33.05,0 l0,-16.51 l-16.54,0 l0,-16.54 l-33.05,0 l0,-16.52 l-16.52,0 l0,-16.51 l-16.51,0 l0,-16.52 l-33.05,0 l0,-16.53 l-16.54,0 l0,-16.52 l-33.03,0 l0,-16.52 l-33.05,0 l0,-16.51 l-16.54,0 l0,-16.54 l-33.03,0 l0,-16.52 l-16.54,0 l0,-16.51 l-16.51,0 l0,-16.52 l-33.06,0 l0,-16.53 l-16.51,0 l0,-16.52 l-33.05,0 l0,-16.52 l-16.54,0 l0,-16.52 l-33.03,0 l0,-16.53 l-33.05,0 l0,-16.52 l-16.54,0 l0,-16.51 l-33.03,0 l0,-16.52 l-16.54,0 l0,-16.54 l-16.51,0 l0,-16.51 l-33.05,0 l0,-16.52 l-16.54,0 l0,-16.52 l-33.03,0 l0,-16.53 l-33.05,0 l0,-16.52 l-16.54,0 l0,-16.51 l-16.52,0 l0,-16.52 l-33.05,0 l0,-16.54 l-16.51,0 l0,-16.51 l-33.06,0 l0,-16.52 l-16.51,0 l0,-16.52 l-33.05,0 l0,-16.53 l-16.54,0 l0,-16.52 l-33.03,0 l0,-16.52 l-16.54,0 l0,-16.51 l-33.05,0 l0,-16.54 l-16.52,0 l0,-16.51 l-33.05,0 l0,-16.52 l-16.51,0 l0,-16.52 l-33.06,0 l0,-16.53 l-16.51,0 l0,-16.52 l-33.05,0 l0,-16.52 l-16.54,0 l0,-16.51 l-33.05,0 l0,-16.54 l-16.52,0 l0,-16.51 l-33.05,0 l0,-16.52 l-16.52,0 l0,-16.52 l-33.05,0 l0,-16.53 l-16.51,0 l0,-16.52 l-16.54,0 l0,-16.52 l-33.05,0 l0,-16.51 l-33.03,0 l0,-16.54 l-16.54,0 l0,-16.52 l-33.05,0 l0,-16.51 l-16.52,0 l0,-16.52 l-33.05,0 l0,-16.53 l-16.52,0 l0,-16.52 l-16.53,0 l0,-16.52 l-33.03,0 l0,-16.51 l-33.06,0 l0,-16.54 l-16.53,0 l0,-16.52 l-33.05,0 l0,-16.51 l-16.52,0 l0,-16.52 l-16.52,0 l0,-1933.01 l-33.05,0 l0,-16.52 l-16.53,0 l0,-16.52 l-33.04,0 l0,-16.51 l-49.58,0 l0,7682.42 z" id="svg_1"/>
  <polygon class="fil0" points="16.5205078125,2048.64990234375 0,2048.64990234375 0,7864.15966796875 16.5205078125,7864.15966796875 16.5205078125,7880.68017578125 33.0498046875,7880.68017578125 33.0498046875,7864.15966796875 49.5703125,7864.15966796875 49.5703125,7847.64990234375 82.6201171875,7847.64990234375 82.6201171875,7831.13037109375 99.150390625,7831.13037109375 99.150390625,7814.60009765625 132.1904296875,7814.60009765625 132.1904296875,7798.08056640625 165.240234375,7798.08056640625 165.240234375,7781.56005859375 181.7705078125,7781.56005859375 181.7705078125,7765.04052734375 214.810546875,7765.04052734375 214.810546875,7748.51025390625 231.33984375,7748.51025390625 231.33984375,7731.98974609375 247.8603515625,7731.98974609375 247.8603515625,7715.47998046875 280.91015625,7715.47998046875 280.91015625,7698.96044921875 297.4306640625,7698.96044921875 297.4306640625,7682.42041015625 330.48046875,7682.42041015625 330.48046875,7665.90966796875 347.009765625,7665.90966796875 347.009765625,7649.39013671875 380.0498046875,7649.39013671875 380.0498046875,7632.86962890625 396.580078125,7632.86962890625 396.580078125,7616.34033203125 429.6298828125,7616.34033203125 429.6298828125,7599.81982421875 446.150390625,7599.81982421875 446.150390625,7583.30029296875 479.2001953125,7583.30029296875 479.2001953125,7566.79052734375 495.720703125,7566.79052734375 495.720703125,7550.25048828125 528.7705078125,7550.25048828125 528.7705078125,7533.73974609375 545.2900390625,7533.73974609375 545.2900390625,7517.22021484375 578.33984375,7517.22021484375 578.33984375,7500.69970703125 594.8701171875,7500.69970703125 594.8701171875,7484.17041015625 627.919921875,7484.17041015625 627.919921875,7467.64990234375 644.4404296875,7467.64990234375 644.4404296875,7451.13037109375 677.490234375,7451.13037109375 677.490234375,7434.61962890625 694.009765625,7434.61962890625 694.009765625,7418.08056640625 727.060546875,7418.08056640625 727.060546875,7401.56982421875 743.580078125,7401.56982421875 743.580078125,7385.05029296875 776.6298828125,7385.05029296875 776.6298828125,7368.52978515625 793.16015625,7368.52978515625 793.16015625,7352.00048828125 826.2001953125,7352.00048828125 826.2001953125,7335.47998046875 842.73046875,7335.47998046875 842.73046875,7318.96044921875 875.7802734375,7318.96044921875 875.7802734375,7302.44970703125 892.2998046875,7302.44970703125 892.2998046875,7285.90966796875 908.8203125,7285.90966796875 908.8203125,7269.39013671875 925.3505859375,7269.39013671875 925.3505859375,6641.59033203125 875.7802734375,6641.59033203125 875.7802734375,6658.10986328125 859.25,6658.10986328125 859.25,6674.63037109375 826.2001953125,6674.63037109375 826.2001953125,6691.14013671875 809.6806640625,6691.14013671875 809.6806640625,6707.68017578125 776.6298828125,6707.68017578125 776.6298828125,6724.18994140625 760.1103515625,6724.18994140625 760.1103515625,6740.71044921875 727.060546875,6740.71044921875 727.060546875,6757.22998046875 710.5400390625,6757.22998046875 710.5400390625,6773.76025390625 677.490234375,6773.76025390625 677.490234375,6790.27978515625 660.9599609375,6790.27978515625 660.9599609375,6806.80029296875 627.919921875,6806.80029296875 627.919921875,6823.31005859375 611.390625,6823.31005859375 611.390625,6839.85009765625 578.33984375,6839.85009765625 578.33984375,6856.36962890625 545.2900390625,6856.36962890625 545.2900390625,3056.44970703125 578.33984375,3056.44970703125 578.33984375,3072.97998046875 611.390625,3072.97998046875 611.390625,3089.50048828125 627.919921875,3089.50048828125 627.919921875,3106.01025390625 660.9599609375,3106.01025390625 660.9599609375,3122.52978515625 677.490234375,3122.52978515625 677.490234375,3139.06982421875 710.5400390625,3139.06982421875 710.5400390625,3155.58056640625 727.060546875,3155.58056640625 727.060546875,3172.10009765625 760.1103515625,3172.10009765625 760.1103515625,3188.61962890625 776.6298828125,3188.61962890625 776.6298828125,3205.14990234375 809.6806640625,3205.14990234375 809.6806640625,3221.67041015625 826.2001953125,3221.67041015625 826.2001953125,3238.18017578125 859.25,3238.18017578125 859.25,3254.69970703125 875.7802734375,3254.69970703125 875.7802734375,3271.23974609375 925.3505859375,3271.23974609375 925.3505859375,2643.419921875 908.8203125,2643.419921875 908.8203125,2626.89990234375 892.2998046875,2626.89990234375 892.2998046875,2610.3798828125 875.7802734375,2610.3798828125 875.7802734375,2593.85009765625 842.73046875,2593.85009765625 842.73046875,2577.330078125 826.2001953125,2577.330078125 826.2001953125,2560.81005859375 793.16015625,2560.81005859375 793.16015625,2544.30029296875 776.6298828125,2544.30029296875 776.6298828125,2527.76025390625 743.580078125,2527.76025390625 743.580078125,2511.25 727.060546875,2511.25 727.060546875,2494.72998046875 694.009765625,2494.72998046875 694.009765625,2478.2099609375 677.490234375,2478.2099609375 677.490234375,2461.68017578125 644.4404296875,2461.68017578125 644.4404296875,2445.16015625 627.919921875,2445.16015625 627.919921875,2428.64013671875 594.8701171875,2428.64013671875 594.8701171875,2412.1298828125 578.33984375,2412.1298828125 578.33984375,2395.59033203125 545.2900390625,2395.59033203125 545.2900390625,2379.0703125 528.7705078125,2379.0703125 528.7705078125,2362.56005859375 495.720703125,2362.56005859375 495.720703125,2346.0400390625 479.2001953125,2346.0400390625 479.2001953125,2329.51025390625 446.150390625,2329.51025390625 446.150390625,2312.990234375 429.6298828125,2312.990234375 429.6298828125,2296.47021484375 396.580078125,2296.47021484375 396.580078125,2279.9501953125 380.0498046875,2279.9501953125 380.0498046875,2263.419921875 347.009765625,2263.419921875 347.009765625,2246.89990234375 330.48046875,2246.89990234375 330.48046875,2230.39013671875 297.4306640625,2230.39013671875 297.4306640625,2213.8701171875 280.91015625,2213.8701171875 280.91015625,2197.330078125 247.8603515625,2197.330078125 247.8603515625,2180.8203125 231.33984375,2180.8203125 231.33984375,2164.30029296875 214.810546875,2164.30029296875 214.810546875,2147.7802734375 181.7705078125,2147.7802734375 181.7705078125,2131.25 165.240234375,2131.25 165.240234375,2114.72998046875 132.1904296875,2114.72998046875 132.1904296875,2098.22021484375 115.669921875,2098.22021484375 115.669921875,2081.7001953125 82.6201171875,2081.7001953125 82.6201171875,2065.16015625 49.5703125,2065.16015625 49.5703125,2048.64990234375 33.0498046875,2048.64990234375 33.0498046875,2032.1298828125 16.5205078125,2032.1298828125 " id="svg_2"/>
  <polygon class="fil0" points="1041.0205078125,214.77001953125 1057.5400390625,214.77001953125 1057.5400390625,231.31005859375 1090.58984375,231.31005859375 1090.58984375,247.8203125 1123.640625,247.8203125 1123.640625,264.34033203125 1140.16015625,264.34033203125 1140.16015625,280.85986328125 1173.2099609375,280.85986328125 1173.2099609375,297.39013671875 1206.259765625,297.39013671875 1206.259765625,313.91015625 1222.7802734375,313.91015625 1222.7802734375,330.43017578125 1255.830078125,330.43017578125 1255.830078125,346.93994140625 1272.3505859375,346.93994140625 1272.3505859375,363.47998046875 1305.400390625,363.47998046875 1305.400390625,379.990234375 1321.9306640625,379.990234375 1321.9306640625,396.51025390625 1354.970703125,396.51025390625 1354.970703125,413.0302734375 1388.0205078125,413.0302734375 1388.0205078125,429.56005859375 1404.5498046875,429.56005859375 1404.5498046875,446.080078125 1437.58984375,446.080078125 1437.58984375,462.60009765625 1470.640625,462.60009765625 1470.640625,479.10986328125 1487.169921875,479.10986328125 1487.169921875,495.64990234375 1520.2099609375,495.64990234375 1520.2099609375,512.169921875 1536.740234375,512.169921875 1536.740234375,528.68017578125 1569.7900390625,528.68017578125 1569.7900390625,545.2001953125 1602.830078125,545.2001953125 1602.830078125,561.72998046875 1619.3603515625,561.72998046875 1619.3603515625,578.25 1652.41015625,578.25 1652.41015625,594.77001953125 1668.9306640625,594.77001953125 1668.9306640625,611.2900390625 1701.98046875,611.2900390625 1701.98046875,627.8203125 1735.0302734375,627.8203125 1735.0302734375,644.34033203125 1751.5498046875,644.34033203125 1751.5498046875,660.85009765625 1784.6005859375,660.85009765625 1784.6005859375,677.3701171875 1801.1201171875,677.3701171875 1801.1201171875,693.89990234375 1834.169921875,693.89990234375 1834.169921875,710.419921875 1867.220703125,710.419921875 1867.220703125,726.93994140625 1883.740234375,726.93994140625 1883.740234375,743.4599609375 1916.7900390625,743.4599609375 1916.7900390625,759.990234375 1933.330078125,759.990234375 1933.330078125,776.51025390625 1966.3603515625,776.51025390625 1966.3603515625,793.02001953125 1999.41015625,793.02001953125 1999.41015625,809.5400390625 2015.9501953125,809.5400390625 2015.9501953125,826.080078125 2048.98046875,826.080078125 2048.98046875,842.59033203125 2082.0302734375,842.59033203125 2082.0302734375,859.10986328125 2098.5703125,859.10986328125 2098.5703125,875.6298828125 2131.6201171875,875.6298828125 2131.6201171875,892.16015625 2148.1298828125,892.16015625 2148.1298828125,908.68017578125 2181.1904296875,908.68017578125 2181.1904296875,925.2001953125 2197.7001953125,925.2001953125 2197.7001953125,941.7099609375 2230.75,941.7099609375 2230.75,958.25 2263.810546875,958.25 2263.810546875,974.76025390625 2280.3203125,974.76025390625 2280.3203125,991.2802734375 2313.3701171875,991.2802734375 2313.3701171875,1007.80029296875 2346.4306640625,1007.80029296875 2346.4306640625,1024.330078125 2362.9404296875,1024.330078125 2362.9404296875,1040.85009765625 2395.990234375,1040.85009765625 2395.990234375,1057.3701171875 2412.509765625,1057.3701171875 2412.509765625,1073.8798828125 2445.560546875,1073.8798828125 2445.560546875,1090.419921875 2462.1005859375,1090.419921875 2462.1005859375,1106.93017578125 2495.1298828125,1106.93017578125 2495.1298828125,1123.4501953125 2528.1806640625,1123.4501953125 2528.1806640625,1139.97021484375 2544.720703125,1139.97021484375 2544.720703125,1156.5 2577.75,1156.5 2577.75,1173.02001953125 2610.7998046875,1173.02001953125 2610.7998046875,1189.5400390625 2627.33984375,1189.5400390625 2627.33984375,1206.05029296875 2660.390625,1206.05029296875 2660.390625,1222.59033203125 2676.91015625,1222.59033203125 2676.91015625,1239.10986328125 2709.9599609375,1239.10986328125 2709.9599609375,1255.6201171875 2726.470703125,1255.6201171875 2726.470703125,1272.14013671875 2759.5205078125,1272.14013671875 2759.5205078125,1288.669921875 2792.580078125,1288.669921875 2792.580078125,1305.18994140625 2825.6298828125,1305.18994140625 2825.6298828125,1321.7099609375 2842.140625,1321.7099609375 2842.140625,1338.22021484375 2875.2001953125,1338.22021484375 2875.2001953125,1354.76025390625 2891.7099609375,1354.76025390625 2891.7099609375,1371.2802734375 2924.759765625,1371.2802734375 2924.759765625,1387.7900390625 2941.2802734375,1387.7900390625 2941.2802734375,1404.31005859375 2974.330078125,1404.31005859375 2974.330078125,1420.84033203125 3007.3798828125,1420.84033203125 3007.3798828125,1437.35986328125 3023.900390625,1437.35986328125 3023.900390625,1453.8798828125 3056.9501953125,1453.8798828125 3056.9501953125,1470.39990234375 3090,1470.39990234375 3090,1486.93017578125 3106.5205078125,1486.93017578125 3106.5205078125,1503.4501953125 3139.5703125,1503.4501953125 3139.5703125,1519.9599609375 3156.1103515625,1519.9599609375 3156.1103515625,1536.47998046875 3189.16015625,1536.47998046875 3189.16015625,1553.02001953125 3205.6806640625,1553.02001953125 3205.6806640625,1569.5302734375 3238.73046875,1569.5302734375 3238.73046875,1586.05029296875 3271.7802734375,1586.05029296875 3271.7802734375,1602.5703125 3288.2998046875,1602.5703125 3288.2998046875,1619.10009765625 3321.3505859375,1619.10009765625 3321.3505859375,1635.6201171875 3354.400390625,1635.6201171875 3354.400390625,1652.1298828125 3370.919921875,1652.1298828125 3370.919921875,1668.64990234375 3403.970703125,1668.64990234375 3403.970703125,1685.18994140625 3420.48046875,1685.18994140625 3420.48046875,1701.7001953125 3453.541015625,1701.7001953125 3453.541015625,1718.22021484375 3486.58984375,1718.22021484375 3486.58984375,1734.740234375 3503.099609375,1734.740234375 3503.099609375,1751.27001953125 3536.16015625,1751.27001953125 3536.16015625,1767.7900390625 3552.669921875,1767.7900390625 3552.669921875,1784.31005859375 3585.720703125,1784.31005859375 3585.720703125,1800.8203125 3618.779296875,1800.8203125 3618.779296875,1817.35986328125 3635.291015625,1817.35986328125 3635.291015625,1833.8701171875 3668.33984375,1833.8701171875 3668.33984375,1850.39013671875 3684.880859375,1850.39013671875 3684.880859375,1866.91015625 3717.9296875,1866.91015625 3717.9296875,1883.43994140625 3750.9609375,1883.43994140625 3750.9609375,1899.9599609375 3767.5,1899.9599609375 3767.5,1916.47998046875 3800.55078125,1916.47998046875 3800.55078125,1932.990234375 3817.0703125,1932.990234375 3817.0703125,1949.5302734375 3850.12109375,1949.5302734375 3850.12109375,1966.0400390625 3866.640625,1966.0400390625 3866.640625,1982.56005859375 3899.689453125,1982.56005859375 3899.689453125,1999.080078125 3932.740234375,1999.080078125 3932.740234375,2015.60986328125 3965.791015625,2015.60986328125 3965.791015625,2032.1298828125 3982.310546875,2032.1298828125 3982.310546875,2048.64990234375 4015.359375,2048.64990234375 4015.359375,2065.16015625 4031.880859375,2065.16015625 4031.880859375,2081.7001953125 4064.9296875,2081.7001953125 4064.9296875,2098.22021484375 4081.439453125,2098.22021484375 4081.439453125,2114.72998046875 4114.5,2114.72998046875 4114.5,2131.25 4131.029296875,2131.25 4131.029296875,2147.7802734375 4164.060546875,2147.7802734375 4164.060546875,2164.30029296875 4197.12109375,2164.30029296875 4197.12109375,2180.8203125 4213.650390625,2180.8203125 4213.650390625,2197.330078125 4246.701171875,2197.330078125 4246.701171875,2213.8701171875 4279.740234375,2213.8701171875 4279.740234375,2230.39013671875 4296.26953125,2230.39013671875 4296.26953125,2246.89990234375 4329.3203125,2246.89990234375 4329.3203125,2263.419921875 4345.83984375,2263.419921875 4345.83984375,2279.9501953125 4378.890625,2279.9501953125 4378.890625,2296.47021484375 4411.939453125,2296.47021484375 4411.939453125,2312.990234375 4428.4609375,2312.990234375 4428.4609375,2329.51025390625 4461.509765625,2329.51025390625 4461.509765625,2346.0400390625 4494.560546875,2346.0400390625 4494.560546875,2362.56005859375 4511.080078125,2362.56005859375 4511.080078125,2379.0703125 4544.130859375,2379.0703125 4544.130859375,2395.59033203125 4560.650390625,2395.59033203125 4560.650390625,2412.1298828125 4593.701171875,2412.1298828125 4593.701171875,2428.64013671875 4610.2109375,2428.64013671875 4610.2109375,2445.16015625 4643.26953125,2445.16015625 4643.26953125,2461.68017578125 4676.3203125,2461.68017578125 4676.3203125,2478.2099609375 4692.830078125,2478.2099609375 4692.830078125,2494.72998046875 4725.890625,2494.72998046875 4725.890625,2511.25 4758.939453125,2511.25 4758.939453125,2527.76025390625 4775.470703125,2527.76025390625 4775.470703125,2544.30029296875 4808.509765625,2544.30029296875 4808.509765625,2560.81005859375 4825.041015625,2560.81005859375 4825.041015625,2577.330078125 4858.08984375,2577.330078125 4858.08984375,2593.85009765625 4874.609375,2593.85009765625 4874.609375,2610.3798828125 4907.66015625,2610.3798828125 4907.66015625,2626.89990234375 4940.7109375,2626.89990234375 4940.7109375,2643.419921875 4957.23046875,2643.419921875 4957.23046875,2659.93017578125 4990.279296875,2659.93017578125 4990.279296875,2676.47021484375 5023.330078125,2676.47021484375 5023.330078125,2692.97998046875 5039.849609375,2692.97998046875 5039.849609375,2709.5 5072.900390625,2709.5 5072.900390625,2726.02001953125 5089.419921875,2726.02001953125 5089.419921875,2742.55029296875 5122.470703125,2742.55029296875 5122.470703125,2759.0703125 5155.51953125,2759.0703125 5155.51953125,2775.59033203125 5172.041015625,2775.59033203125 5172.041015625,2792.10009765625 5205.08984375,2792.10009765625 5205.08984375,2808.64013671875 5238.140625,2808.64013671875 5238.140625,2825.16015625 5254.66015625,2825.16015625 5254.66015625,2841.669921875 5287.7109375,2841.669921875 5287.7109375,2858.18994140625 5304.240234375,2858.18994140625 5304.240234375,2874.72021484375 5337.279296875,2874.72021484375 5337.279296875,2891.240234375 5353.810546875,2891.240234375 5353.810546875,2907.76025390625 5386.859375,2907.76025390625 5386.859375,2924.27001953125 5419.900390625,2924.27001953125 5419.900390625,2940.81005859375 5436.4296875,2940.81005859375 5436.4296875,2957.330078125 5469.48046875,2957.330078125 5469.48046875,2973.84033203125 5486,2973.84033203125 5486,2990.35986328125 5519.05078125,2990.35986328125 5519.05078125,3006.89013671875 5552.099609375,3006.89013671875 5552.099609375,3023.41015625 5568.62109375,3023.41015625 5568.62109375,3039.93017578125 5601.669921875,3039.93017578125 5601.669921875,3056.44970703125 5618.189453125,3056.44970703125 5618.189453125,3072.97998046875 5651.240234375,3072.97998046875 5651.240234375,3089.50048828125 5684.291015625,3089.50048828125 5684.291015625,3106.01025390625 5700.810546875,3106.01025390625 5700.810546875,3122.52978515625 5733.859375,3122.52978515625 5733.859375,3139.06982421875 5750.380859375,3139.06982421875 5750.380859375,3155.58056640625 5783.4296875,3155.58056640625 5783.4296875,3172.10009765625 5816.48046875,3172.10009765625 5816.48046875,3188.61962890625 5833.009765625,3188.61962890625 5833.009765625,3205.14990234375 5866.05078125,3205.14990234375 5866.05078125,3221.67041015625 5899.099609375,3221.67041015625 5899.099609375,3238.18017578125 5915.630859375,3238.18017578125 5915.630859375,3254.69970703125 5948.669921875,3254.69970703125 5948.669921875,3271.23974609375 5965.201171875,3271.23974609375 5965.201171875,3287.75048828125 5998.25,3287.75048828125 5998.25,3304.27001953125 6014.76953125,3304.27001953125 6014.76953125,3320.79052734375 6047.8203125,3320.79052734375 6047.8203125,3337.31982421875 6080.87109375,3337.31982421875 6080.87109375,3353.84033203125 6097.390625,3353.84033203125 6097.390625,3370.35986328125 6130.439453125,3370.35986328125 6130.439453125,3386.86962890625 6163.490234375,3386.86962890625 6163.490234375,3403.40966796875 6180.009765625,3403.40966796875 6180.009765625,3419.92041015625 6213.060546875,3419.92041015625 6213.060546875,3436.43994140625 6229.580078125,3436.43994140625 6229.580078125,3452.96044921875 6262.630859375,3452.96044921875 6262.630859375,3469.48974609375 6279.150390625,3469.48974609375 6279.150390625,3486.01025390625 6312.201171875,3486.01025390625 6312.201171875,3502.52978515625 6345.25,3502.52978515625 6345.25,3519.04052734375 6378.30078125,3519.04052734375 6378.30078125,3535.58056640625 6394.8203125,3535.58056640625 6394.8203125,3552.09033203125 6427.87109375,3552.09033203125 6427.87109375,3568.60986328125 6444.41015625,3568.60986328125 6444.41015625,3585.13037109375 6477.439453125,3585.13037109375 6477.439453125,3601.65966796875 6493.970703125,3601.65966796875 6493.970703125,3618.18017578125 6527.029296875,3618.18017578125 6527.029296875,3634.69970703125 6560.060546875,3634.69970703125 6560.060546875,3651.21044921875 6576.58984375,3651.21044921875 6576.58984375,3667.75048828125 6609.650390625,3667.75048828125 6609.650390625,3684.27001953125 6642.6796875,3684.27001953125 6642.6796875,3700.77978515625 6659.2109375,3700.77978515625 6659.2109375,3717.30029296875 6692.26953125,3717.30029296875 6692.26953125,3733.83056640625 6708.779296875,3733.83056640625 6708.779296875,3750.35009765625 6741.830078125,3750.35009765625 6741.830078125,3766.86962890625 6758.349609375,3766.86962890625 6758.349609375,3783.38037109375 6791.400390625,3783.38037109375 6791.400390625,3799.92041015625 6824.451171875,3799.92041015625 6824.451171875,3816.43994140625 6840.970703125,3816.43994140625 6840.970703125,3832.94970703125 6874.01953125,3832.94970703125 6874.01953125,3849.47021484375 6907.0703125,3849.47021484375 6907.0703125,3866.00048828125 6923.58984375,3866.00048828125 6923.58984375,3882.52001953125 6956.640625,3882.52001953125 6956.640625,3899.04052734375 6973.1796875,3899.04052734375 6973.1796875,3915.56005859375 7006.2109375,3915.56005859375 7006.2109375,3932.09033203125 7039.259765625,3932.09033203125 7039.259765625,3948.60986328125 7055.80078125,3948.60986328125 7055.80078125,3965.11962890625 7088.830078125,3965.11962890625 7088.830078125,3981.64013671875 7105.359375,3981.64013671875 7105.359375,3998.18017578125 7138.419921875,3998.18017578125 7138.419921875,4014.68994140625 7171.451171875,4014.68994140625 7171.451171875,4031.21044921875 7187.98046875,4031.21044921875 7187.98046875,4047.72998046875 7221.041015625,4047.72998046875 7221.041015625,4064.26025390625 7237.55078125,4064.26025390625 7237.55078125,4080.77978515625 7270.599609375,4080.77978515625 7270.599609375,4097.29052734375 7303.66015625,4097.29052734375 7303.66015625,4113.81005859375 7320.169921875,4113.81005859375 7320.169921875,4130.35009765625 7353.220703125,4130.35009765625 7353.220703125,4146.85986328125 7369.740234375,4146.85986328125 7369.740234375,4163.38037109375 7402.791015625,4163.38037109375 7402.791015625,4179.89990234375 7435.83984375,4179.89990234375 7435.83984375,4196.43017578125 7452.359375,4196.43017578125 7452.359375,4212.94970703125 7485.41015625,4212.94970703125 7485.41015625,4229.47021484375 7501.951171875,4229.47021484375 7501.951171875,4245.97998046875 7534.98046875,4245.97998046875 7534.98046875,4262.52001953125 7568.029296875,4262.52001953125 7568.029296875,4279.02978515625 7584.5703125,4279.02978515625 7584.5703125,4295.55029296875 7617.599609375,4295.55029296875 7617.599609375,4312.06982421875 7634.140625,4312.06982421875 7634.140625,4328.60009765625 7667.189453125,4328.60009765625 7667.189453125,4345.11962890625 7683.701171875,4345.11962890625 7683.701171875,4361.64013671875 7716.759765625,4361.64013671875 7716.759765625,4378.14990234375 7749.810546875,4378.14990234375 7749.810546875,4394.68994140625 7782.83984375,4394.68994140625 7782.83984375,4411.21044921875 7799.380859375,4411.21044921875 7799.380859375,4427.72021484375 7832.4296875,4427.72021484375 7832.4296875,4444.23974609375 7848.939453125,4444.23974609375 7848.939453125,4460.77001953125 7882,4460.77001953125 7882,4477.29052734375 7898.509765625,4477.29052734375 7898.509765625,4493.81005859375 7931.560546875,4493.81005859375 7931.560546875,4510.31982421875 7964.62109375,4510.31982421875 7964.62109375,4526.85986328125 7981.130859375,4526.85986328125 7981.130859375,4543.38037109375 8014.1796875,4543.38037109375 8014.1796875,4559.89013671875 8047.240234375,4559.89013671875 8047.240234375,4576.40966796875 8063.75,4576.40966796875 8063.75,4592.93994140625 8096.80078125,4592.93994140625 8096.80078125,4609.46044921875 8113.33984375,4609.46044921875 8113.33984375,4625.97998046875 8146.37109375,4625.97998046875 8146.37109375,4642.50048828125 8162.91015625,4642.50048828125 8162.91015625,4659.02978515625 8195.9609375,4659.02978515625 8195.9609375,4675.55029296875 8228.990234375,4675.55029296875 8228.990234375,4692.06005859375 8262.041015625,4692.06005859375 8262.041015625,4708.58056640625 8278.580078125,4708.58056640625 8278.580078125,4725.11962890625 8311.609375,4725.11962890625 8311.609375,4741.63037109375 8328.150390625,4741.63037109375 8328.150390625,4758.14990234375 8361.201171875,4758.14990234375 8361.201171875,4774.67041015625 8377.720703125,4774.67041015625 8377.720703125,4791.19970703125 8410.76953125,4791.19970703125 8410.76953125,4807.72021484375 8427.279296875,4807.72021484375 8427.279296875,4824.22998046875 8460.33984375,4824.22998046875 8460.33984375,4840.75048828125 8493.390625,4840.75048828125 8493.390625,4857.29052734375 8509.900390625,4857.29052734375 8509.900390625,4873.80029296875 8542.9609375,4873.80029296875 8542.9609375,4890.31982421875 8576.009765625,4890.31982421875 8576.009765625,4906.84033203125 8609.060546875,4906.84033203125 8609.060546875,4890.31982421875 8642.109375,4890.31982421875 8642.109375,4873.80029296875 8658.630859375,4873.80029296875 8658.630859375,4857.29052734375 8691.6796875,4857.29052734375 8691.6796875,4840.75048828125 8724.73046875,4840.75048828125 8724.73046875,4824.22998046875 8741.25,4824.22998046875 8741.25,4791.19970703125 8724.73046875,4791.19970703125 8724.73046875,4774.67041015625 8691.6796875,4774.67041015625 8691.6796875,4758.14990234375 8675.140625,4758.14990234375 8675.140625,4741.63037109375 8642.109375,4741.63037109375 8642.109375,4725.11962890625 8609.060546875,4725.11962890625 8609.060546875,4708.58056640625 8592.51953125,4708.58056640625 8592.51953125,4692.06005859375 8559.490234375,4692.06005859375 8559.490234375,4675.55029296875 8542.9609375,4675.55029296875 8542.9609375,4659.02978515625 8509.900390625,4659.02978515625 8509.900390625,4642.50048828125 8476.87109375,4642.50048828125 8476.87109375,4625.97998046875 8460.33984375,4625.97998046875 8460.33984375,4609.46044921875 8427.279296875,4609.46044921875 8427.279296875,4592.93994140625 8394.25,4592.93994140625 8394.25,4576.40966796875 8377.720703125,4576.40966796875 8377.720703125,4559.89013671875 8344.66015625,4559.89013671875 8344.66015625,4543.38037109375 8328.150390625,4543.38037109375 8328.150390625,4526.85986328125 8295.099609375,4526.85986328125 8295.099609375,4510.31982421875 8278.580078125,4510.31982421875 8278.580078125,4493.81005859375 8245.529296875,4493.81005859375 8245.529296875,4477.29052734375 8212.48046875,4477.29052734375 8212.48046875,4460.77001953125 8195.9609375,4460.77001953125 8195.9609375,4444.23974609375 8162.91015625,4444.23974609375 8162.91015625,4427.72021484375 8129.859375,4427.72021484375 8129.859375,4411.21044921875 8113.33984375,4411.21044921875 8113.33984375,4394.68994140625 8080.291015625,4394.68994140625 8080.291015625,4378.14990234375 8063.75,4378.14990234375 8063.75,4361.64013671875 8030.720703125,4361.64013671875 8030.720703125,4345.11962890625 8014.1796875,4345.11962890625 8014.1796875,4328.60009765625 7981.130859375,4328.60009765625 7981.130859375,4312.06982421875 7948.099609375,4312.06982421875 7948.099609375,4295.55029296875 7931.560546875,4295.55029296875 7931.560546875,4279.02978515625 7898.509765625,4279.02978515625 7898.509765625,4262.52001953125 7865.48046875,4262.52001953125 7865.48046875,4245.97998046875 7848.939453125,4245.97998046875 7848.939453125,4229.47021484375 7815.890625,4229.47021484375 7815.890625,4212.94970703125 7799.380859375,4212.94970703125 7799.380859375,4196.43017578125 7766.3203125,4196.43017578125 7766.3203125,4179.89990234375 7733.26953125,4179.89990234375 7733.26953125,4163.38037109375 7716.759765625,4163.38037109375 7716.759765625,4146.85986328125 7683.701171875,4146.85986328125 7683.701171875,4130.35009765625 7650.650390625,4130.35009765625 7650.650390625,4113.81005859375 7634.140625,4113.81005859375 7634.140625,4097.29052734375 7601.080078125,4097.29052734375 7601.080078125,4080.77978515625 7584.5703125,4080.77978515625 7584.5703125,4064.26025390625 7551.51953125,4064.26025390625 7551.51953125,4047.72998046875 7534.98046875,4047.72998046875 7534.98046875,4031.21044921875 7501.951171875,4031.21044921875 7501.951171875,4014.68994140625 7468.900390625,4014.68994140625 7468.900390625,3998.18017578125 7452.359375,3998.18017578125 7452.359375,3981.64013671875 7419.330078125,3981.64013671875 7419.330078125,3965.11962890625 7402.791015625,3965.11962890625 7402.791015625,3948.60986328125 7369.740234375,3948.60986328125 7369.740234375,3932.09033203125 7336.7109375,3932.09033203125 7336.7109375,3915.56005859375 7320.169921875,3915.56005859375 7320.169921875,3899.04052734375 7287.12109375,3899.04052734375 7287.12109375,3882.52001953125 7254.0703125,3882.52001953125 7254.0703125,3866.00048828125 7237.55078125,3866.00048828125 7237.55078125,3849.47021484375 7204.5,3849.47021484375 7204.5,3832.94970703125 7187.98046875,3832.94970703125 7187.98046875,3816.43994140625 7154.9296875,3816.43994140625 7154.9296875,3799.92041015625 7138.419921875,3799.92041015625 7138.419921875,3783.38037109375 7105.359375,3783.38037109375 7105.359375,3766.86962890625 7072.310546875,3766.86962890625 7072.310546875,3750.35009765625 7055.80078125,3750.35009765625 7055.80078125,3733.83056640625 7022.740234375,3733.83056640625 7022.740234375,3717.30029296875 6989.689453125,3717.30029296875 6989.689453125,3700.77978515625 6973.1796875,3700.77978515625 6973.1796875,3684.27001953125 6940.130859375,3684.27001953125 6940.130859375,3667.75048828125 6923.58984375,3667.75048828125 6923.58984375,3651.21044921875 6890.560546875,3651.21044921875 6890.560546875,3634.69970703125 6874.01953125,3634.69970703125 6874.01953125,3618.18017578125 6840.970703125,3618.18017578125 6840.970703125,3601.65966796875 6807.939453125,3601.65966796875 6807.939453125,3585.13037109375 6791.400390625,3585.13037109375 6791.400390625,3568.60986328125 6758.349609375,3568.60986328125 6758.349609375,3552.09033203125 6725.30078125,3552.09033203125 6725.30078125,3535.58056640625 6708.779296875,3535.58056640625 6708.779296875,3519.04052734375 6675.73046875,3519.04052734375 6675.73046875,3502.52978515625 6659.2109375,3502.52978515625 6659.2109375,3486.01025390625 6626.16015625,3486.01025390625 6626.16015625,3469.48974609375 6609.650390625,3469.48974609375 6609.650390625,3452.96044921875 6576.58984375,3452.96044921875 6576.58984375,3436.43994140625 6543.541015625,3436.43994140625 6543.541015625,3419.92041015625 6510.490234375,3419.92041015625 6510.490234375,3403.40966796875 6493.970703125,3403.40966796875 6493.970703125,3386.86962890625 6460.919921875,3386.86962890625 6460.919921875,3370.35986328125 6444.41015625,3370.35986328125 6444.41015625,3353.84033203125 6411.349609375,3353.84033203125 6411.349609375,3337.31982421875 6394.8203125,3337.31982421875 6394.8203125,3320.79052734375 6361.791015625,3320.79052734375 6361.791015625,3304.27001953125 6345.25,3304.27001953125 6345.25,3287.75048828125 6312.201171875,3287.75048828125 6312.201171875,3271.23974609375 6279.150390625,3271.23974609375 6279.150390625,3254.69970703125 6246.109375,3254.69970703125 6246.109375,3238.18017578125 6229.580078125,3238.18017578125 6229.580078125,3221.67041015625 6196.529296875,3221.67041015625 6196.529296875,3205.14990234375 6180.009765625,3205.14990234375 6180.009765625,3188.61962890625 6146.9609375,3188.61962890625 6146.9609375,3172.10009765625 6130.439453125,3172.10009765625 6130.439453125,3155.58056640625 6097.390625,3155.58056640625 6097.390625,3139.06982421875 6064.33984375,3139.06982421875 6064.33984375,3122.52978515625 6047.8203125,3122.52978515625 6047.8203125,3106.01025390625 6014.76953125,3106.01025390625 6014.76953125,3089.50048828125 5981.720703125,3089.50048828125 5981.720703125,3072.97998046875 5965.201171875,3072.97998046875 5965.201171875,3056.44970703125 5932.150390625,3056.44970703125 5932.150390625,3039.93017578125 5915.630859375,3039.93017578125 5915.630859375,3023.41015625 5882.580078125,3023.41015625 5882.580078125,3006.89013671875 5866.05078125,3006.89013671875 5866.05078125,2990.35986328125 5833.009765625,2990.35986328125 5833.009765625,2973.84033203125 5799.9609375,2973.84033203125 5799.9609375,2957.330078125 5766.91015625,2957.330078125 5766.91015625,2940.81005859375 5750.380859375,2940.81005859375 5750.380859375,2924.27001953125 5717.33984375,2924.27001953125 5717.33984375,2907.76025390625 5700.810546875,2907.76025390625 5700.810546875,2891.240234375 5667.759765625,2891.240234375 5667.759765625,2874.72021484375 5651.240234375,2874.72021484375 5651.240234375,2858.18994140625 5618.189453125,2858.18994140625 5618.189453125,2841.669921875 5585.140625,2841.669921875 5585.140625,2825.16015625 5568.62109375,2825.16015625 5568.62109375,2808.64013671875 5535.5703125,2808.64013671875 5535.5703125,2792.10009765625 5519.05078125,2792.10009765625 5519.05078125,2775.59033203125 5486,2775.59033203125 5486,2759.0703125 5452.951171875,2759.0703125 5452.951171875,2742.55029296875 5436.4296875,2742.55029296875 5436.4296875,2726.02001953125 5403.380859375,2726.02001953125 5403.380859375,2709.5 5386.859375,2709.5 5386.859375,2692.97998046875 5353.810546875,2692.97998046875 5353.810546875,2676.47021484375 5320.759765625,2676.47021484375 5320.759765625,2659.93017578125 5304.240234375,2659.93017578125 5304.240234375,2643.419921875 5271.189453125,2643.419921875 5271.189453125,2626.89990234375 5254.66015625,2626.89990234375 5254.66015625,2610.3798828125 5221.609375,2610.3798828125 5221.609375,2593.85009765625 5205.08984375,2593.85009765625 5205.08984375,2577.330078125 5172.041015625,2577.330078125 5172.041015625,2560.81005859375 5138.990234375,2560.81005859375 5138.990234375,2544.30029296875 5122.470703125,2544.30029296875 5122.470703125,2527.76025390625 5089.419921875,2527.76025390625 5089.419921875,2511.25 5056.37109375,2511.25 5056.37109375,2494.72998046875 5039.849609375,2494.72998046875 5039.849609375,2478.2099609375 5006.80078125,2478.2099609375 5006.80078125,2461.68017578125 4990.279296875,2461.68017578125 4990.279296875,2445.16015625 4957.23046875,2445.16015625 4957.23046875,2428.64013671875 4924.1796875,2428.64013671875 4924.1796875,2412.1298828125 4907.66015625,2412.1298828125 4907.66015625,2395.59033203125 4874.609375,2395.59033203125 4874.609375,2379.0703125 4841.560546875,2379.0703125 4841.560546875,2362.56005859375 4825.041015625,2362.56005859375 4825.041015625,2346.0400390625 4791.990234375,2346.0400390625 4791.990234375,2329.51025390625 4775.470703125,2329.51025390625 4775.470703125,2312.990234375 4742.419921875,2312.990234375 4742.419921875,2296.47021484375 4725.890625,2296.47021484375 4725.890625,2279.9501953125 4692.830078125,2279.9501953125 4692.830078125,2263.419921875 4659.80078125,2263.419921875 4659.80078125,2246.89990234375 4643.26953125,2246.89990234375 4643.26953125,2230.39013671875 4610.2109375,2230.39013671875 4610.2109375,2213.8701171875 4577.1796875,2213.8701171875 4577.1796875,2197.330078125 4560.650390625,2197.330078125 4560.650390625,2180.8203125 4527.58984375,2180.8203125 4527.58984375,2164.30029296875 4511.080078125,2164.30029296875 4511.080078125,2147.7802734375 4478.029296875,2147.7802734375 4478.029296875,2131.25 4461.509765625,2131.25 4461.509765625,2114.72998046875 4428.4609375,2114.72998046875 4428.4609375,2098.22021484375 4395.41015625,2098.22021484375 4395.41015625,2081.7001953125 4378.890625,2081.7001953125 4378.890625,2065.16015625 4345.83984375,2065.16015625 4345.83984375,2048.64990234375 4312.791015625,2048.64990234375 4312.791015625,2032.1298828125 4296.26953125,2032.1298828125 4296.26953125,2015.60986328125 4263.220703125,2015.60986328125 4263.220703125,1999.080078125 4246.701171875,1999.080078125 4246.701171875,1982.56005859375 4213.650390625,1982.56005859375 4213.650390625,1966.0400390625 4180.599609375,1966.0400390625 4180.599609375,1949.5302734375 4164.060546875,1949.5302734375 4164.060546875,1932.990234375 4131.029296875,1932.990234375 4131.029296875,1916.47998046875 4097.98046875,1916.47998046875 4097.98046875,1899.9599609375 4081.439453125,1899.9599609375 4081.439453125,1883.43994140625 4048.41015625,1883.43994140625 4048.41015625,1866.91015625 4031.880859375,1866.91015625 4031.880859375,1850.39013671875 3998.8203125,1850.39013671875 3998.8203125,1833.8701171875 3982.310546875,1833.8701171875 3982.310546875,1817.35986328125 3949.259765625,1817.35986328125 3949.259765625,1800.8203125 3916.201171875,1800.8203125 3916.201171875,1784.31005859375 3899.689453125,1784.31005859375 3899.689453125,1767.7900390625 3866.640625,1767.7900390625 3866.640625,1751.27001953125 3833.580078125,1751.27001953125 3833.580078125,1734.740234375 3817.0703125,1734.740234375 3817.0703125,1718.22021484375 3784.01953125,1718.22021484375 3784.01953125,1701.7001953125 3767.5,1701.7001953125 3767.5,1685.18994140625 3734.451171875,1685.18994140625 3734.451171875,1668.64990234375 3717.9296875,1668.64990234375 3717.9296875,1652.1298828125 3684.880859375,1652.1298828125 3684.880859375,1635.6201171875 3651.830078125,1635.6201171875 3651.830078125,1619.10009765625 3635.291015625,1619.10009765625 3635.291015625,1602.5703125 3602.259765625,1602.5703125 3602.259765625,1586.05029296875 3585.720703125,1586.05029296875 3585.720703125,1569.5302734375 3552.669921875,1569.5302734375 3552.669921875,1553.02001953125 3519.640625,1553.02001953125 3519.640625,1536.47998046875 3503.099609375,1536.47998046875 3503.099609375,1519.9599609375 3470.05078125,1519.9599609375 3470.05078125,1503.4501953125 3437.01953125,1503.4501953125 3437.01953125,1486.93017578125 3420.48046875,1486.93017578125 3420.48046875,1470.39990234375 3387.4296875,1470.39990234375 3387.4296875,1453.8798828125 3370.919921875,1453.8798828125 3370.919921875,1437.35986328125 3337.8603515625,1437.35986328125 3337.8603515625,1420.84033203125 3321.3505859375,1420.84033203125 3321.3505859375,1404.31005859375 3288.2998046875,1404.31005859375 3288.2998046875,1387.7900390625 3255.240234375,1387.7900390625 3255.240234375,1371.2802734375 3238.73046875,1371.2802734375 3238.73046875,1354.76025390625 3205.6806640625,1354.76025390625 3205.6806640625,1338.22021484375 3172.6201171875,1338.22021484375 3172.6201171875,1321.7099609375 3156.1103515625,1321.7099609375 3156.1103515625,1305.18994140625 3123.060546875,1305.18994140625 3123.060546875,1288.669921875 3106.5205078125,1288.669921875 3106.5205078125,1272.14013671875 3073.490234375,1272.14013671875 3073.490234375,1255.6201171875 3056.9501953125,1255.6201171875 3056.9501953125,1239.10986328125 3023.900390625,1239.10986328125 3023.900390625,1222.59033203125 2990.8701171875,1222.59033203125 2990.8701171875,1206.05029296875 2957.8203125,1206.05029296875 2957.8203125,1189.5400390625 2941.2802734375,1189.5400390625 2941.2802734375,1173.02001953125 2908.25,1173.02001953125 2908.25,1156.5 2891.7099609375,1156.5 2891.7099609375,1139.97021484375 2858.66015625,1139.97021484375 2858.66015625,1123.4501953125 2842.140625,1123.4501953125 2842.140625,1106.93017578125 2809.08984375,1106.93017578125 2809.08984375,1090.419921875 2792.580078125,1090.419921875 2792.580078125,1073.8798828125 2759.5205078125,1073.8798828125 2759.5205078125,1057.3701171875 2726.470703125,1057.3701171875 2726.470703125,1040.85009765625 2693.419921875,1040.85009765625 2693.419921875,1024.330078125 2676.91015625,1024.330078125 2676.91015625,1007.80029296875 2643.8505859375,1007.80029296875 2643.8505859375,991.2802734375 2627.33984375,991.2802734375 2627.33984375,974.76025390625 2594.2900390625,974.76025390625 2594.2900390625,958.25 2577.75,958.25 2577.75,941.7099609375 2544.720703125,941.7099609375 2544.720703125,925.2001953125 2511.669921875,925.2001953125 2511.669921875,908.68017578125 2495.1298828125,908.68017578125 2495.1298828125,892.16015625 2462.1005859375,892.16015625 2462.1005859375,875.6298828125 2429.0498046875,875.6298828125 2429.0498046875,859.10986328125 2412.509765625,859.10986328125 2412.509765625,842.59033203125 2379.48046875,842.59033203125 2379.48046875,826.080078125 2362.9404296875,826.080078125 2362.9404296875,809.5400390625 2329.890625,809.5400390625 2329.890625,793.02001953125 2313.3701171875,793.02001953125 2313.3701171875,776.51025390625 2280.3203125,776.51025390625 2280.3203125,759.990234375 2247.2705078125,759.990234375 2247.2705078125,743.4599609375 2214.240234375,743.4599609375 2214.240234375,726.93994140625 2197.7001953125,726.93994140625 2197.7001953125,710.419921875 2164.650390625,710.419921875 2164.650390625,693.89990234375 2148.1298828125,693.89990234375 2148.1298828125,677.3701171875 2115.080078125,677.3701171875 2115.080078125,660.85009765625 2098.5703125,660.85009765625 2098.5703125,644.34033203125 2065.509765625,644.34033203125 2065.509765625,627.8203125 2032.4599609375,627.8203125 2032.4599609375,611.2900390625 2015.9501953125,611.2900390625 2015.9501953125,594.77001953125 1982.890625,594.77001953125 1982.890625,578.25 1966.3603515625,578.25 1966.3603515625,561.72998046875 1933.330078125,561.72998046875 1933.330078125,545.2001953125 1900.2705078125,545.2001953125 1900.2705078125,528.68017578125 1883.740234375,528.68017578125 1883.740234375,512.169921875 1850.7099609375,512.169921875 1850.7099609375,495.64990234375 1834.169921875,495.64990234375 1834.169921875,479.10986328125 1801.1201171875,479.10986328125 1801.1201171875,462.60009765625 1768.08984375,462.60009765625 1768.08984375,446.080078125 1751.5498046875,446.080078125 1751.5498046875,429.56005859375 1718.5,429.56005859375 1718.5,413.0302734375 1701.98046875,413.0302734375 1701.98046875,396.51025390625 1668.9306640625,396.51025390625 1668.9306640625,379.990234375 1635.8798828125,379.990234375 1635.8798828125,363.47998046875 1619.3603515625,363.47998046875 1619.3603515625,346.93994140625 1586.310546875,346.93994140625 1586.310546875,330.43017578125 1569.7900390625,330.43017578125 1569.7900390625,313.91015625 1536.740234375,313.91015625 1536.740234375,297.39013671875 1503.6904296875,297.39013671875 1503.6904296875,280.85986328125 1487.169921875,280.85986328125 1487.169921875,264.34033203125 1454.1201171875,264.34033203125 1454.1201171875,247.8203125 1437.58984375,247.8203125 1437.58984375,231.31005859375 1404.5498046875,231.31005859375 1404.5498046875,214.77001953125 1371.5,214.77001953125 1371.5,198.26025390625 1354.970703125,198.26025390625 1354.970703125,181.740234375 1321.9306640625,181.740234375 1321.9306640625,165.22021484375 1288.8798828125,165.22021484375 1288.8798828125,148.68994140625 1272.3505859375,148.68994140625 1272.3505859375,132.169921875 1239.310546875,132.169921875 1239.310546875,115.64990234375 1222.7802734375,115.64990234375 1222.7802734375,99.14013671875 1189.73046875,99.14013671875 1189.73046875,82.60009765625 1173.2099609375,82.60009765625 1173.2099609375,66.080078125 1140.16015625,66.080078125 1140.16015625,49.5703125 1107.1103515625,49.5703125 1107.1103515625,33.05029296875 1090.58984375,33.05029296875 1090.58984375,16.52001953125 1057.5400390625,16.52001953125 1057.5400390625,0 1041.0205078125,0 " id="svg_3"/>
 </g></g></svg>